<svg xmlns="http://www.w3.org/2000/svg" viewBox="0 0 822.7 176.39" role="img" aria-label="Eau Claire Tree Trimming"><title>Eau Claire Tree Trimming</title><path d="M65.9 91.59V104.79Q65.9 105.49 65.5 105.89Q65.1 106.29 64.4 106.29H47.6Q47.1 106.29 47.1 106.79V158.59Q47.1 159.29 46.7 159.69Q46.3 160.09 45.6 160.09H29.8Q29.1 160.09 28.7 159.69Q28.3 159.29 28.3 158.59V106.79Q28.3 106.29 27.8 106.29H11.5Q10.8 106.29 10.4 105.89Q10 105.49 10 104.79V91.59Q10 90.89 10.4 90.49Q10.8 90.09 11.5 90.09H64.4Q65.1 90.09 65.5 90.49Q65.9 90.89 65.9 91.59Z M115.29 158.99 104.29 133.59Q104.09 133.19 103.69 133.19H99.49Q98.99 133.19 98.99 133.69V158.59Q98.99 159.29 98.59 159.69Q98.19 160.09 97.49 160.09H81.69Q80.99 160.09 80.59 159.69Q80.19 159.29 80.19 158.59V91.59Q80.19 90.89 80.59 90.49Q80.99 90.09 81.69 90.09H111.99Q118.79 90.09 123.94 92.89Q129.09 95.69 131.94 100.74Q134.79 105.79 134.79 112.39Q134.79 118.99 131.54 123.94Q128.29 128.89 122.59 131.19Q122.09 131.39 122.29 131.89L134.99 158.29Q135.19 158.89 135.19 158.99Q135.19 159.49 134.79 159.79Q134.39 160.09 133.79 160.09H116.99Q115.69 160.09 115.29 158.99ZM98.99 106.69V118.39Q98.99 118.89 99.49 118.89H108.89Q112.09 118.89 114.09 117.14Q116.09 115.39 116.09 112.59Q116.09 109.69 114.09 107.94Q112.09 106.19 108.89 106.19H99.49Q98.99 106.19 98.99 106.69Z M199.48 106.19H169.58Q169.08 106.19 169.08 106.69V116.09Q169.08 116.59 169.58 116.59H188.08Q188.78 116.59 189.18 116.99Q189.58 117.39 189.58 118.09V131.09Q189.58 131.79 189.18 132.19Q188.78 132.59 188.08 132.59H169.58Q169.08 132.59 169.08 133.09V143.49Q169.08 143.99 169.58 143.99H199.48Q200.18 143.99 200.58 144.39Q200.98 144.79 200.98 145.49V158.59Q200.98 159.29 200.58 159.69Q200.18 160.09 199.48 160.09H151.78Q151.08 160.09 150.68 159.69Q150.28 159.29 150.28 158.59V91.59Q150.28 90.89 150.68 90.49Q151.08 90.09 151.78 90.09H199.48Q200.18 90.09 200.58 90.49Q200.98 90.89 200.98 91.59V104.69Q200.98 105.39 200.58 105.79Q200.18 106.19 199.48 106.19Z M265.07 106.19H235.18Q234.68 106.19 234.68 106.69V116.09Q234.68 116.59 235.18 116.59H253.68Q254.38 116.59 254.78 116.99Q255.18 117.39 255.18 118.09V131.09Q255.18 131.79 254.78 132.19Q254.38 132.59 253.68 132.59H235.18Q234.68 132.59 234.68 133.09V143.49Q234.68 143.99 235.18 143.99H265.07Q265.77 143.99 266.17 144.39Q266.57 144.79 266.57 145.49V158.59Q266.57 159.29 266.17 159.69Q265.77 160.09 265.07 160.09H217.38Q216.67 160.09 216.27 159.69Q215.88 159.29 215.88 158.59V91.59Q215.88 90.89 216.27 90.49Q216.67 90.09 217.38 90.09H265.07Q265.77 90.09 266.17 90.49Q266.57 90.89 266.57 91.59V104.69Q266.57 105.39 266.17 105.79Q265.77 106.19 265.07 106.19Z  M363.86 91.59V104.79Q363.86 105.49 363.46 105.89Q363.06 106.29 362.36 106.29H345.56Q345.06 106.29 345.06 106.79V158.59Q345.06 159.29 344.66 159.69Q344.26 160.09 343.56 160.09H327.76Q327.06 160.09 326.66 159.69Q326.26 159.29 326.26 158.59V106.79Q326.26 106.29 325.76 106.29H309.46Q308.76 106.29 308.36 105.89Q307.96 105.49 307.96 104.79V91.59Q307.96 90.89 308.36 90.49Q308.76 90.09 309.46 90.09H362.36Q363.06 90.09 363.46 90.49Q363.86 90.89 363.86 91.59Z M413.25 158.99 402.25 133.59Q402.05 133.19 401.65 133.19H397.45Q396.95 133.19 396.95 133.69V158.59Q396.95 159.29 396.55 159.69Q396.15 160.09 395.45 160.09H379.65Q378.95 160.09 378.55 159.69Q378.15 159.29 378.15 158.59V91.59Q378.15 90.89 378.55 90.49Q378.95 90.09 379.65 90.09H409.95Q416.75 90.09 421.9 92.89Q427.05 95.69 429.9 100.74Q432.75 105.79 432.75 112.39Q432.75 118.99 429.5 123.94Q426.25 128.89 420.55 131.19Q420.05 131.39 420.25 131.89L432.95 158.29Q433.15 158.89 433.15 158.99Q433.15 159.49 432.75 159.79Q432.35 160.09 431.75 160.09H414.95Q413.65 160.09 413.25 158.99ZM396.95 106.69V118.39Q396.95 118.89 397.45 118.89H406.85Q410.05 118.89 412.05 117.14Q414.05 115.39 414.05 112.59Q414.05 109.69 412.05 107.94Q410.05 106.19 406.85 106.19H397.45Q396.95 106.19 396.95 106.69Z M448.24 158.59V91.59Q448.24 90.89 448.64 90.49Q449.04 90.09 449.74 90.09H465.54Q466.24 90.09 466.64 90.49Q467.04 90.89 467.04 91.59V158.59Q467.04 159.29 466.64 159.69Q466.24 160.09 465.54 160.09H449.74Q449.04 160.09 448.64 159.69Q448.24 159.29 448.24 158.59Z M529.93 90.09H545.53Q546.23 90.09 546.63 90.49Q547.03 90.89 547.03 91.59V158.59Q547.03 159.29 546.63 159.69Q546.23 160.09 545.53 160.09H529.73Q529.03 160.09 528.63 159.69Q528.23 159.29 528.23 158.59V122.29Q528.23 121.89 528.03 121.84Q527.83 121.79 527.63 122.09L520.83 133.19Q520.23 134.19 519.03 134.19H511.43Q510.23 134.19 509.63 133.19L502.83 122.09Q502.63 121.79 502.43 121.84Q502.23 121.89 502.23 122.29V158.59Q502.23 159.29 501.83 159.69Q501.43 160.09 500.73 160.09H484.93Q484.23 160.09 483.83 159.69Q483.43 159.29 483.43 158.59V91.59Q483.43 90.89 483.83 90.49Q484.23 90.09 484.93 90.09H500.53Q501.73 90.09 502.33 91.09L514.93 111.39Q515.23 111.99 515.53 111.39L528.13 91.09Q528.73 90.09 529.93 90.09Z M609.93 90.09H625.53Q626.23 90.09 626.63 90.49Q627.03 90.89 627.03 91.59V158.59Q627.03 159.29 626.63 159.69Q626.23 160.09 625.53 160.09H609.73Q609.03 160.09 608.63 159.69Q608.23 159.29 608.23 158.59V122.29Q608.23 121.89 608.03 121.84Q607.83 121.79 607.63 122.09L600.83 133.19Q600.23 134.19 599.03 134.19H591.43Q590.23 134.19 589.63 133.19L582.83 122.09Q582.63 121.79 582.43 121.84Q582.23 121.89 582.23 122.29V158.59Q582.23 159.29 581.83 159.69Q581.43 160.09 580.73 160.09H564.93Q564.23 160.09 563.83 159.69Q563.43 159.29 563.43 158.59V91.59Q563.43 90.89 563.83 90.49Q564.23 90.09 564.93 90.09H580.53Q581.73 90.09 582.33 91.09L594.93 111.39Q595.23 111.99 595.53 111.39L608.13 91.09Q608.73 90.09 609.93 90.09Z M643.42 158.59V91.59Q643.42 90.89 643.82 90.49Q644.22 90.09 644.92 90.09H660.72Q661.42 90.09 661.82 90.49Q662.22 90.89 662.22 91.59V158.59Q662.22 159.29 661.82 159.69Q661.42 160.09 660.72 160.09H644.92Q644.22 160.09 643.82 159.69Q643.42 159.29 643.42 158.59Z M719.31 90.09H735.11Q735.81 90.09 736.21 90.49Q736.61 90.89 736.61 91.59V158.59Q736.61 159.29 736.21 159.69Q735.81 160.09 735.11 160.09H720.01Q718.81 160.09 718.21 159.09L697.81 125.09Q697.61 124.79 697.41 124.84Q697.21 124.89 697.21 125.29L697.41 158.59Q697.41 159.29 697.01 159.69Q696.61 160.09 695.91 160.09H680.11Q679.41 160.09 679.01 159.69Q678.61 159.29 678.61 158.59V91.59Q678.61 90.89 679.01 90.49Q679.41 90.09 680.11 90.09H695.21Q696.41 90.09 697.01 91.09L717.31 125.09Q717.51 125.39 717.71 125.34Q717.91 125.29 717.91 124.89L717.81 91.59Q717.81 90.89 718.21 90.49Q718.61 90.09 719.31 90.09Z M752.1 134.49V115.59Q752.1 107.79 755.55 101.84Q759 95.89 765.25 92.59Q771.5 89.29 779.7 89.29Q787.7 89.29 794 92.44Q800.3 95.59 803.75 100.99Q807.2 106.39 807.2 112.79V112.89Q807.2 113.59 806.8 113.99Q806.4 114.39 805.7 114.39H790Q788.5 114.39 788.5 113.49Q788.5 110.19 786.15 107.79Q783.8 105.39 779.7 105.39Q775.7 105.39 773.3 108.04Q770.9 110.69 770.9 115.09V135.09Q770.9 139.39 773.65 142.09Q776.4 144.79 780.5 144.79Q784.2 144.79 786.55 142.74Q788.9 140.69 788.9 137.09V135.79Q788.9 135.29 788.4 135.29H779.6Q778.9 135.29 778.5 134.89Q778.1 134.49 778.1 133.79V121.79Q778.1 121.09 778.5 120.69Q778.9 120.29 779.6 120.29H805.7Q806.4 120.29 806.8 120.69Q807.2 121.09 807.2 121.79V135.49Q807.2 142.89 803.75 148.69Q800.3 154.49 794.05 157.69Q787.8 160.89 779.7 160.89Q771.5 160.89 765.25 157.59Q759 154.29 755.55 148.29Q752.1 142.29 752.1 134.49Z" fill="#c9a84c" transform="translate(5.5 5.5)"/><path d="M65.9 91.59V104.79Q65.9 105.49 65.5 105.89Q65.1 106.29 64.4 106.29H47.6Q47.1 106.29 47.1 106.79V158.59Q47.1 159.29 46.7 159.69Q46.3 160.09 45.6 160.09H29.8Q29.1 160.09 28.7 159.69Q28.3 159.29 28.3 158.59V106.79Q28.3 106.29 27.8 106.29H11.5Q10.8 106.29 10.4 105.89Q10 105.49 10 104.79V91.59Q10 90.89 10.4 90.49Q10.8 90.09 11.5 90.09H64.4Q65.1 90.09 65.5 90.49Q65.9 90.89 65.9 91.59Z M115.29 158.99 104.29 133.59Q104.09 133.19 103.69 133.19H99.49Q98.99 133.19 98.99 133.69V158.59Q98.99 159.29 98.59 159.69Q98.19 160.09 97.49 160.09H81.69Q80.99 160.09 80.59 159.69Q80.19 159.29 80.19 158.59V91.59Q80.19 90.89 80.59 90.49Q80.99 90.09 81.69 90.09H111.99Q118.79 90.09 123.94 92.89Q129.09 95.69 131.94 100.74Q134.79 105.79 134.79 112.39Q134.79 118.99 131.54 123.94Q128.29 128.89 122.59 131.19Q122.09 131.39 122.29 131.89L134.99 158.29Q135.19 158.89 135.19 158.99Q135.19 159.49 134.79 159.79Q134.39 160.09 133.79 160.09H116.99Q115.69 160.09 115.29 158.99ZM98.99 106.69V118.39Q98.99 118.89 99.49 118.89H108.89Q112.09 118.89 114.09 117.14Q116.09 115.39 116.09 112.59Q116.09 109.69 114.09 107.94Q112.09 106.19 108.89 106.19H99.49Q98.99 106.19 98.99 106.69Z M199.48 106.19H169.58Q169.08 106.19 169.08 106.69V116.09Q169.08 116.59 169.58 116.59H188.08Q188.78 116.59 189.18 116.99Q189.58 117.39 189.58 118.09V131.09Q189.58 131.79 189.18 132.19Q188.78 132.59 188.08 132.59H169.58Q169.08 132.59 169.08 133.09V143.49Q169.08 143.99 169.58 143.99H199.48Q200.18 143.99 200.58 144.39Q200.98 144.79 200.98 145.49V158.59Q200.98 159.29 200.58 159.69Q200.18 160.09 199.48 160.09H151.78Q151.08 160.09 150.68 159.69Q150.28 159.29 150.28 158.59V91.59Q150.28 90.89 150.68 90.49Q151.08 90.09 151.78 90.09H199.48Q200.18 90.09 200.58 90.49Q200.98 90.89 200.98 91.59V104.69Q200.98 105.39 200.58 105.79Q200.18 106.19 199.48 106.19Z M265.07 106.19H235.18Q234.68 106.19 234.68 106.69V116.09Q234.68 116.59 235.18 116.59H253.68Q254.38 116.59 254.78 116.99Q255.18 117.39 255.18 118.09V131.09Q255.18 131.79 254.78 132.19Q254.38 132.59 253.68 132.59H235.18Q234.68 132.59 234.68 133.09V143.49Q234.68 143.99 235.18 143.99H265.07Q265.77 143.99 266.17 144.39Q266.57 144.79 266.57 145.49V158.59Q266.57 159.29 266.17 159.69Q265.77 160.09 265.07 160.09H217.38Q216.67 160.09 216.27 159.69Q215.88 159.29 215.88 158.59V91.59Q215.88 90.89 216.27 90.49Q216.67 90.09 217.38 90.09H265.07Q265.77 90.09 266.17 90.49Q266.57 90.89 266.57 91.59V104.69Q266.57 105.39 266.17 105.79Q265.77 106.19 265.07 106.19Z  M363.86 91.59V104.79Q363.86 105.49 363.46 105.89Q363.06 106.29 362.36 106.29H345.56Q345.06 106.29 345.06 106.79V158.59Q345.06 159.29 344.66 159.69Q344.26 160.09 343.56 160.09H327.76Q327.06 160.09 326.66 159.69Q326.26 159.29 326.26 158.59V106.79Q326.26 106.29 325.76 106.29H309.46Q308.76 106.29 308.36 105.89Q307.96 105.49 307.96 104.79V91.59Q307.96 90.89 308.36 90.49Q308.76 90.09 309.46 90.09H362.36Q363.06 90.09 363.46 90.49Q363.86 90.89 363.86 91.59Z M413.25 158.99 402.25 133.59Q402.05 133.19 401.65 133.19H397.45Q396.95 133.19 396.95 133.69V158.59Q396.95 159.29 396.55 159.69Q396.15 160.09 395.45 160.09H379.65Q378.95 160.09 378.55 159.69Q378.15 159.29 378.15 158.59V91.59Q378.15 90.89 378.55 90.49Q378.95 90.09 379.65 90.09H409.95Q416.75 90.09 421.9 92.89Q427.05 95.69 429.9 100.74Q432.75 105.79 432.75 112.39Q432.75 118.99 429.5 123.94Q426.25 128.89 420.55 131.19Q420.05 131.39 420.25 131.89L432.95 158.29Q433.15 158.89 433.15 158.99Q433.15 159.49 432.75 159.79Q432.35 160.09 431.75 160.09H414.95Q413.65 160.09 413.25 158.99ZM396.95 106.69V118.39Q396.95 118.89 397.45 118.89H406.85Q410.05 118.89 412.05 117.14Q414.05 115.39 414.05 112.59Q414.05 109.69 412.05 107.94Q410.05 106.19 406.85 106.19H397.45Q396.95 106.19 396.95 106.69Z M448.24 158.59V91.59Q448.24 90.89 448.64 90.49Q449.04 90.09 449.74 90.09H465.54Q466.24 90.09 466.64 90.49Q467.04 90.89 467.04 91.59V158.59Q467.04 159.29 466.64 159.69Q466.24 160.09 465.54 160.09H449.74Q449.04 160.09 448.64 159.69Q448.24 159.29 448.24 158.59Z M529.93 90.09H545.53Q546.23 90.09 546.63 90.49Q547.03 90.89 547.03 91.59V158.59Q547.03 159.29 546.63 159.69Q546.23 160.09 545.53 160.09H529.73Q529.03 160.09 528.63 159.69Q528.23 159.29 528.23 158.59V122.29Q528.23 121.89 528.03 121.84Q527.83 121.79 527.63 122.09L520.83 133.19Q520.23 134.19 519.03 134.19H511.43Q510.23 134.19 509.63 133.19L502.83 122.09Q502.63 121.79 502.43 121.84Q502.23 121.89 502.23 122.29V158.59Q502.23 159.29 501.83 159.69Q501.43 160.09 500.73 160.09H484.93Q484.23 160.09 483.83 159.69Q483.43 159.29 483.43 158.59V91.59Q483.43 90.89 483.83 90.49Q484.23 90.09 484.93 90.09H500.53Q501.73 90.09 502.33 91.09L514.93 111.39Q515.23 111.99 515.53 111.39L528.13 91.09Q528.73 90.09 529.93 90.09Z M609.93 90.09H625.53Q626.23 90.09 626.63 90.49Q627.03 90.89 627.03 91.59V158.59Q627.03 159.29 626.63 159.69Q626.23 160.09 625.53 160.09H609.73Q609.03 160.09 608.63 159.69Q608.23 159.29 608.23 158.59V122.29Q608.23 121.89 608.03 121.84Q607.83 121.79 607.63 122.09L600.83 133.19Q600.23 134.19 599.03 134.19H591.43Q590.23 134.19 589.63 133.19L582.83 122.09Q582.63 121.79 582.43 121.84Q582.23 121.89 582.23 122.29V158.59Q582.23 159.29 581.83 159.69Q581.43 160.09 580.73 160.09H564.93Q564.23 160.09 563.83 159.69Q563.43 159.29 563.43 158.59V91.59Q563.43 90.89 563.83 90.49Q564.23 90.09 564.93 90.09H580.53Q581.73 90.09 582.33 91.09L594.93 111.39Q595.23 111.99 595.53 111.39L608.13 91.09Q608.73 90.09 609.93 90.09Z M643.42 158.59V91.59Q643.42 90.89 643.82 90.49Q644.22 90.09 644.92 90.09H660.72Q661.42 90.09 661.82 90.49Q662.22 90.89 662.22 91.59V158.59Q662.22 159.29 661.82 159.69Q661.42 160.09 660.72 160.09H644.92Q644.22 160.09 643.82 159.69Q643.42 159.29 643.42 158.59Z M719.31 90.09H735.11Q735.81 90.09 736.21 90.49Q736.61 90.89 736.61 91.59V158.59Q736.61 159.29 736.21 159.69Q735.81 160.09 735.11 160.09H720.01Q718.81 160.09 718.21 159.09L697.81 125.09Q697.61 124.79 697.41 124.84Q697.21 124.89 697.21 125.29L697.41 158.59Q697.41 159.29 697.01 159.69Q696.61 160.09 695.91 160.09H680.11Q679.41 160.09 679.01 159.69Q678.61 159.29 678.61 158.59V91.59Q678.61 90.89 679.01 90.49Q679.41 90.09 680.11 90.09H695.21Q696.41 90.09 697.01 91.09L717.31 125.09Q717.51 125.39 717.71 125.34Q717.91 125.29 717.91 124.89L717.81 91.59Q717.81 90.89 718.21 90.49Q718.61 90.09 719.31 90.09Z M752.1 134.49V115.59Q752.1 107.79 755.55 101.84Q759 95.89 765.25 92.59Q771.5 89.29 779.7 89.29Q787.7 89.29 794 92.44Q800.3 95.59 803.75 100.99Q807.2 106.39 807.2 112.79V112.89Q807.2 113.59 806.8 113.99Q806.4 114.39 805.7 114.39H790Q788.5 114.39 788.5 113.49Q788.5 110.19 786.15 107.79Q783.8 105.39 779.7 105.39Q775.7 105.39 773.3 108.04Q770.9 110.69 770.9 115.09V135.09Q770.9 139.39 773.65 142.09Q776.4 144.79 780.5 144.79Q784.2 144.79 786.55 142.74Q788.9 140.69 788.9 137.09V135.79Q788.9 135.29 788.4 135.29H779.6Q778.9 135.29 778.5 134.89Q778.1 134.49 778.1 133.79V121.79Q778.1 121.09 778.5 120.69Q778.9 120.29 779.6 120.29H805.7Q806.4 120.29 806.8 120.69Q807.2 121.09 807.2 121.79V135.49Q807.2 142.89 803.75 148.69Q800.3 154.49 794.05 157.69Q787.8 160.89 779.7 160.89Q771.5 160.89 765.25 157.59Q759 154.29 755.55 148.29Q752.1 142.29 752.1 134.49Z" fill="#F2EBD9"/><path d="M41.05 35.54Q41.05 38.71 52.13 38.71Q54.87 38.71 56.19 38.12Q59.65 36.46 64.71 36.46Q69.76 36.46 69.76 39.05Q69.76 40.08 68.91 42.06Q68.05 44.03 67.64 44.47Q67.22 44.91 64.49 45.67Q61.75 46.43 60.95 46.5Q60.14 46.57 59.87 46.62Q59.6 46.67 59.24 46.72Q58.87 46.77 57.6 46.99Q56.33 47.21 55.75 46.96Q39.58 54.92 33.53 64.44Q30.8 68.74 30.8 71.82Q30.8 76.65 37.49 76.65Q42.71 76.65 50.77 72.55Q58.82 68.45 65.05 62.61Q71.27 56.78 71.27 52.48Q71.27 51.11 73.33 51.11Q78.06 51.11 78.06 56.73Q78.06 59.37 75.77 63Q73.47 66.64 69.37 70.38Q65.27 74.11 60.24 77.33Q55.21 80.56 49.08 82.61Q42.95 84.66 38.71 84.66Q34.46 84.66 31.85 83.85Q29.23 83.05 26.94 81.44Q21.96 77.97 21.96 70.94Q21.96 67.13 24.01 63.2Q26.06 59.27 29.38 56.04Q35.48 49.99 42.47 45.99Q32.41 43.69 32.41 35.63Q32.41 26.55 46.37 19.03Q54.14 14.88 63.22 13.08Q67.51 12.2 70.4 12.2Q76.25 12.2 79.23 13.12Q81.04 14 82.16 15.59Q83.29 17.18 83.29 18.33Q83.29 19.47 82.99 20.4Q82.7 21.33 82.02 21.87Q81.04 22.6 79.82 22.99Q78.6 23.38 78.4 23.48Q74.59 25.09 71.86 25.09Q66.98 25.09 66.54 23.82Q66.64 22.55 67.61 20.89Q62.97 21.08 57.99 22.77Q53.01 24.45 49.37 26.72Q45.74 28.99 43.39 31.44Q41.05 33.88 41.05 35.54Z M113.32 46.18Q117.03 46.18 117.03 48.72Q117.03 50.09 116.39 50.72Q115.76 51.36 113.68 54.95Q111.61 58.54 109.09 64.13Q106.58 69.72 105.84 73.67Q105.7 74.16 105.7 75.04Q105.7 77.72 107.16 77.72Q108.63 77.72 110.63 76.33Q112.63 74.94 114.19 73.35Q115.76 71.77 117.25 70.11Q118.74 68.45 119.03 68.2Q119.32 67.96 119.91 67.96Q120.83 67.96 121.03 69.38Q121.23 70.79 121.23 72.3Q121.23 73.82 120.93 74.4Q119.52 77.19 114.71 81.09Q109.9 85 105.97 85Q102.04 85 100.18 82.61Q98.33 80.21 98.33 77.31Q98.33 74.4 99.3 72.21Q95.25 77.48 90 81.14Q84.75 84.8 81.43 84.8Q78.11 84.8 76.01 82.8Q73.33 80.31 73.33 75.89Q73.33 71.47 75.3 67.01Q77.28 62.54 80.5 58.85Q83.73 55.17 87.58 52.14Q95.69 45.79 102.52 45.79Q105.16 45.79 106.82 46.67Q108.48 47.55 108.92 48.87Q110.09 47.11 110.9 46.65Q111.7 46.18 113.32 46.18ZM106.82 51.6Q98.47 51.6 89.54 60.88Q86.36 64.2 83.7 68.84Q81.04 73.48 81.04 75.19Q81.04 76.89 82.02 76.89Q83.38 76.89 89.63 71.5Q95.88 66.1 97.93 63.56Q100.18 60.73 106.82 51.6Z M158.14 67.96Q159.07 67.96 159.26 69.38Q159.46 70.79 159.46 72.3Q159.46 73.82 159.17 74.4Q157.75 77.14 152.96 81.07Q148.18 85 143.88 85Q141.25 85 139 83.41Q136.75 81.83 136.75 77.87Q136.75 73.92 138.85 70.11Q126.74 85.29 119.86 85.29Q117.12 85.29 115.44 83.34Q113.75 81.39 113.75 79.31Q113.75 77.24 114.34 75.01Q114.93 72.79 115.59 71.04Q116.25 69.28 117.54 66.69Q118.83 64.1 119.47 62.93Q120.1 61.76 121.49 59.39Q122.89 57.02 125.16 53.02Q127.43 49.01 128.92 47.08Q130.41 45.16 131.82 45.13Q133.24 45.11 134.31 46.28Q135.39 47.45 135.39 48.18Q135.39 48.92 132.11 54.78Q122.45 72.26 122.45 75.14Q122.45 75.87 122.98 75.87Q125.33 75.87 134.65 65.71Q143.98 55.56 145.44 52.7Q146.91 49.84 148.3 47.89Q149.69 45.94 150.38 45.5Q152.48 44.13 155.8 44.03Q156.33 44.03 156.63 44.08Q156.92 44.13 157.31 44.91Q157.7 45.69 157.7 46.13Q157.26 47.5 153.82 53.41Q150.38 59.32 149.99 60.1Q144.22 72.01 144.22 75.62Q144.22 77.68 145.79 77.68Q148.62 77.29 152.62 73.13Q154.09 71.62 155.53 70.06Q156.97 68.5 157.31 68.23Q157.65 67.96 158.14 67.96Z  M230.6 54.82Q231.77 54.82 231.77 56.7Q231.77 58.58 230.94 63.17Q230.31 66.25 223.91 71.96Q216.2 78.8 206.97 81.73Q201.4 83.49 196.1 83.49Q190.81 83.49 186.44 79.02Q182.07 74.55 182.07 68.42Q182.07 62.29 184.53 55.73Q187 49.16 191.17 43.18Q195.35 37.2 201.04 31.68Q206.72 26.16 212.88 22.11Q219.03 18.06 225.77 15.66Q232.5 13.27 238.56 13.27Q243.34 13.27 246.71 16.74Q248.47 18.59 248.47 21.4Q248.47 24.21 245.74 28.48Q243 32.75 239.27 36.27Q235.53 39.79 231.55 42.23Q227.57 44.67 225.18 44.67Q222.79 44.67 221.08 43.18Q219.37 41.69 219.37 40.52Q219.37 39.35 219.88 37.93Q220.4 36.51 221.18 36.51Q220.98 36.76 220.98 37Q220.98 37.59 222.67 37.59Q224.35 37.59 228.31 34.61Q232.26 31.63 235.46 27.92Q238.66 24.21 238.66 22.35Q238.66 21.08 236.95 21.08Q232.36 21.08 224.28 25.36Q216.2 29.63 208.82 36.37Q201.45 43.11 196.01 52.36Q190.56 61.61 190.56 68.98Q190.56 72.06 192.2 73.92Q193.83 75.77 197.23 75.77Q200.62 75.77 205.26 73.82Q209.9 71.87 214.07 69.03Q218.25 66.2 221.96 63.22Q225.67 60.24 227.89 58Q230.11 55.75 230.16 55.29Q230.21 54.82 230.6 54.82Z M260.39 48.92Q251.89 59.76 244.08 68.4Q244.03 68.98 243.66 70.57Q243.3 72.16 243.3 73.77Q243.3 75.38 244.79 76.67Q246.27 77.97 248.47 77.97Q250.67 77.97 253.18 76.41Q255.7 74.84 257.55 72.94Q262.44 67.91 263.61 67.91Q264.78 67.91 264.78 71.47V72.45Q264.78 74.36 264.1 75.23Q260 80.26 254.87 82.73Q249.74 85.2 245.15 85.2Q240.56 85.2 238.17 82.39Q235.78 79.58 235.78 74.7Q235.78 65.18 240.88 52.31Q245.98 39.44 252.38 30.41Q266.78 10 274.4 10Q276.74 10 278.53 11.39Q280.31 12.78 280.31 15.52Q280.31 18.25 277.28 24.09Q274.25 29.92 270 36Q265.76 42.08 260.39 48.92ZM272.2 18.11Q272.2 17.37 271.71 17.37Q270 17.37 262.73 27.14Q255.45 36.9 252.21 42.71Q248.96 48.53 246.08 57.31Q251.84 50.48 262.02 36Q272.2 21.52 272.2 18.11Z M296.96 46.18Q300.67 46.18 300.67 48.72Q300.67 50.09 300.03 50.72Q299.4 51.36 297.32 54.95Q295.25 58.54 292.73 64.13Q290.22 69.72 289.49 73.67Q289.34 74.16 289.34 75.04Q289.34 77.72 290.81 77.72Q292.27 77.72 294.27 76.33Q296.27 74.94 297.84 73.35Q299.4 71.77 300.89 70.11Q302.38 68.45 302.67 68.2Q302.96 67.96 303.55 67.96Q304.48 67.96 304.67 69.38Q304.87 70.79 304.87 72.3Q304.87 73.82 304.58 74.4Q303.16 77.19 298.35 81.09Q293.54 85 289.61 85Q285.68 85 283.82 82.61Q281.97 80.21 281.97 77.31Q281.97 74.4 282.94 72.21Q278.89 77.48 273.64 81.14Q268.39 84.8 265.07 84.8Q261.75 84.8 259.65 82.8Q256.97 80.31 256.97 75.89Q256.97 71.47 258.95 67.01Q260.92 62.54 264.15 58.85Q267.37 55.17 271.23 52.14Q279.33 45.79 286.17 45.79Q288.8 45.79 290.46 46.67Q292.12 47.55 292.56 48.87Q293.74 47.11 294.54 46.65Q295.35 46.18 296.96 46.18ZM290.46 51.6Q282.11 51.6 273.18 60.88Q270 64.2 267.34 68.84Q264.68 73.48 264.68 75.19Q264.68 76.89 265.66 76.89Q267.03 76.89 273.28 71.5Q279.53 66.1 281.58 63.56Q283.82 60.73 290.46 51.6Z M332.21 29.68Q332.21 32.46 329.62 35.27Q327.04 38.08 324.23 38.08Q321.42 38.08 321.42 35.15Q321.42 32.22 323.89 29.56Q326.35 26.89 329.33 26.89Q330.65 26.89 331.43 27.63Q332.21 28.36 332.21 29.68ZM324.3 72.3Q324.3 73.77 324.01 74.4Q321.62 79.29 316.39 82.29Q311.17 85.29 307.31 85.29Q303.45 85.29 300.67 82.71Q297.89 80.12 297.89 77.43Q297.89 74.75 300.57 69.62Q303.26 64.49 305.94 60.15Q308.63 55.8 308.63 55.43Q308.63 55.07 307.63 53.99Q306.63 52.92 306.63 52.41Q306.63 51.89 308.65 49.72Q310.68 47.55 313.58 45.42Q316.49 43.3 318.03 43.3Q319.57 43.3 320.79 44.67Q322.01 46.04 322.01 47.16Q322.01 48.28 310.39 68.3Q310.24 68.59 309.58 69.59Q308.92 70.6 308.55 71.25Q308.19 71.91 307.7 72.84Q306.72 74.79 306.72 76.11Q306.72 77.77 308.97 77.77Q311.22 77.77 313.63 76.24Q316.05 74.7 317.81 72.84Q322.4 67.91 323.03 67.91Q324.3 67.91 324.3 72.3Z M336.66 56.68Q348.18 43.59 356.28 43.59Q358.29 43.59 359.58 44.79Q360.87 45.99 360.87 47.89Q360.87 49.79 358.16 54.26Q355.45 58.73 353.16 61.81Q351.94 63.37 350.4 63.37Q348.86 63.37 348.01 62.25Q347.15 61.12 347.15 59.61Q347.15 56.24 350.77 51.99L350.67 51.89Q349.06 52.04 342.69 58.24Q336.31 64.44 331.85 69.35Q327.38 74.26 322.15 81.29Q320.64 83.39 319.59 83.39Q318.54 83.39 316.81 82.73Q315.07 82.07 314.71 81.78Q314.34 81.48 314.34 80.8Q314.34 80.12 314.73 79.21Q315.12 78.31 316.17 76.65Q317.22 74.99 319.35 71.28Q321.47 67.57 325.96 60.05Q330.45 52.53 331.33 50.97Q333.19 47.74 334.36 46.28Q336.56 43.5 341.78 43.5Q342.95 43.5 342.95 44.96Q342.95 47.26 338.71 53.6Z M389.19 46.77Q389.19 49.99 386.58 52.43Q383.97 54.87 380.65 54.87Q379.58 54.87 379.23 54.36Q378.89 53.85 378.89 53.02Q378.89 52.19 379.09 51.41Q377.33 51.99 375.18 53.21Q373.03 54.43 369.91 56.83Q366.78 59.22 366.78 60.39Q366.78 60.78 367.93 60.78Q369.08 60.78 371.47 59.98Q373.86 59.17 374.81 59.17Q375.77 59.17 376.06 59.27Q376.69 59.61 377.43 60.76Q378.16 61.9 378.16 62.56Q378.16 63.22 376.89 64.3Q375.62 65.37 374.01 65.93Q372.4 66.49 371.86 66.79Q361.56 72.55 361.56 74.7Q361.56 78.51 368.05 78.51Q372.2 78.51 376.4 75.87Q379.97 73.62 382.82 71.3Q385.68 68.98 386.44 68.45Q387.19 67.91 387.58 67.91Q388.85 67.91 388.85 70.74Q388.85 73.57 388.51 74.48Q388.17 75.38 386.56 76.7Q376.11 85.2 366.78 85.2Q361.8 85.2 358.82 83.83Q353.35 81.34 353.35 76.21Q353.35 69.47 362.68 66.01Q360.83 65.18 360.29 63.88Q359.75 62.59 359.75 59.73Q359.75 56.88 362.41 53.68Q365.07 50.48 368.93 48.43Q377.52 43.79 384.26 43.79Q385.87 43.79 387.53 44.57Q389.19 45.35 389.19 46.77Z" fill="#c9a84c"/></svg>
